<svg width="40" height="40" viewBox="0 0 40 40" fill="none" xmlns="http://www.w3.org/2000/svg">
<circle cx="20" cy="20" r="20" fill="#FFD5CD"/>
<path d="M23.3333 13.3333H16.6666C14.8256 13.3333 13.3333 14.8256 13.3333 16.6666V23.3333C13.3333 25.1742 14.8256 26.6666 16.6666 26.6666H23.3333C25.1742 26.6666 26.6666 25.1742 26.6666 23.3333V16.6666C26.6666 14.8256 25.1742 13.3333 23.3333 13.3333Z" stroke="white" stroke-linecap="round" stroke-linejoin="round"/>
<path d="M22.6668 19.58C22.7491 20.1348 22.6543 20.7014 22.396 21.1993C22.1376 21.6972 21.7289 22.1009 21.2279 22.3531C20.7269 22.6052 20.1591 22.693 19.6053 22.6039C19.0515 22.5148 18.54 22.2533 18.1434 21.8567C17.7467 21.4601 17.4853 20.9485 17.3962 20.3948C17.3071 19.841 17.3948 19.2732 17.647 18.7722C17.8992 18.2712 18.3029 17.8625 18.8008 17.6041C19.2987 17.3458 19.8653 17.251 20.4201 17.3333C20.9861 17.4172 21.51 17.6809 21.9146 18.0855C22.3192 18.4901 22.5829 19.014 22.6668 19.58Z" stroke="white" stroke-linecap="round" stroke-linejoin="round"/>
<path d="M23.6667 16.3333H23.6734" stroke="white" stroke-width="2" stroke-linecap="round" stroke-linejoin="round"/>
</svg>
