<svg width="40" height="40" viewBox="0 0 40 40" fill="none" xmlns="http://www.w3.org/2000/svg">
<circle cx="20" cy="20" r="20" fill="#93B5E1"/>
<path d="M22.6666 16.3333C23.7275 16.3333 24.7449 16.7547 25.4951 17.5048C26.2452 18.255 26.6666 19.2724 26.6666 20.3333V24.9999H24V20.3333C24 19.9796 23.8595 19.6405 23.6094 19.3904C23.3594 19.1404 23.0202 18.9999 22.6666 18.9999C22.313 18.9999 21.9739 19.1404 21.7238 19.3904C21.4738 19.6405 21.3333 19.9796 21.3333 20.3333V24.9999H18.6666V20.3333C18.6666 19.2724 19.0881 18.255 19.8382 17.5048C20.5883 16.7547 21.6058 16.3333 22.6666 16.3333V16.3333Z" stroke="white" stroke-linecap="round" stroke-linejoin="round"/>
<path d="M16 17H13.3334V25H16V17Z" stroke="white" stroke-linecap="round" stroke-linejoin="round"/>
<path d="M14.6667 14.9999C15.4031 14.9999 16 14.403 16 13.6666C16 12.9302 15.4031 12.3333 14.6667 12.3333C13.9303 12.3333 13.3334 12.9302 13.3334 13.6666C13.3334 14.403 13.9303 14.9999 14.6667 14.9999Z" stroke="white" stroke-linecap="round" stroke-linejoin="round"/>
</svg>
