<svg width="205" height="100" viewBox="0 0 205 100" fill="none" xmlns="http://www.w3.org/2000/svg">
<path fill-rule="evenodd" clip-rule="evenodd" d="M205 0H0V100H12.1251L49.5811 65.9126L56.1588 100H205V0Z" fill="#222222"/>
<path d="M58.36 58.74C58.648 59.532 59.404 60 60.196 60C60.448 60 60.7 59.964 60.88 59.892C61.924 59.496 62.428 58.344 62.068 57.3L54.112 36.096C53.788 35.304 53.032 34.8 52.204 34.836C51.412 34.8 50.62 35.304 50.296 36.096L42.34 57.3C41.98 58.344 42.484 59.496 43.528 59.892C43.744 59.964 43.96 60 44.212 60C45.004 60 45.76 59.532 46.084 58.74L47.848 54.06H56.596L58.36 58.74ZM49.288 50.1L52.204 42.36L55.12 50.1H49.288ZM68.9974 60C69.0334 60 69.0334 59.964 69.1054 59.964C69.1054 59.964 69.1054 60 69.1414 60H75.5134C79.7614 60 83.2174 56.544 83.2174 52.26C83.2174 49.524 81.7414 47.112 79.5814 45.744C80.4454 44.592 80.9494 43.188 80.9494 41.64C80.9494 37.86 77.8894 34.8 74.1094 34.8H69.1414C69.1054 34.8 69.1054 34.8 69.1054 34.8C69.0334 34.8 69.0334 34.8 68.9974 34.8C67.9174 34.8 67.0174 35.664 67.0174 36.78V58.02C67.0174 59.1 67.9174 60 68.9974 60ZM71.0134 38.796H74.1094C75.6934 38.796 76.9534 40.056 76.9534 41.64C76.9534 43.224 75.6934 44.556 74.1094 44.556H71.0134V38.796ZM71.0134 48.552H75.5134C77.5654 48.588 79.2214 50.208 79.2214 52.26C79.2214 54.348 77.5654 55.968 75.5134 56.004H71.0134V48.552ZM100.56 60C103.62 60 106.464 58.956 108.732 57.192C109.092 56.94 109.308 56.652 109.416 56.328V56.292C109.452 56.22 109.452 56.184 109.488 56.112C109.524 55.896 109.596 55.752 109.596 55.5V47.544C109.596 46.392 108.66 45.528 107.508 45.528C107.508 45.528 107.508 45.528 107.472 45.528C107.472 45.528 107.472 45.528 107.436 45.528H100.344C99.2284 45.528 98.2924 46.392 98.2924 47.544C98.2924 48.66 99.2284 49.596 100.344 49.596H105.492V54.528C104.052 55.356 102.36 55.896 100.56 55.896C97.9684 55.896 95.7004 54.924 94.0804 53.268C92.3884 51.648 91.3804 49.452 91.3804 47.076C91.3804 44.628 92.3884 42.432 94.0804 40.812C95.7004 39.156 97.9684 38.184 100.56 38.184C102.72 38.184 104.7 38.94 106.248 40.128C107.148 40.848 108.48 40.668 109.164 39.804C109.848 38.904 109.704 37.572 108.768 36.888C106.536 35.124 103.62 34.08 100.56 34.08C93.2524 34.08 87.2764 39.84 87.2764 47.076C87.2764 54.276 93.2524 60 100.56 60ZM125.254 59.64C125.362 59.712 125.506 59.82 125.578 59.856C125.614 59.856 125.614 59.856 125.614 59.856C125.614 59.856 125.65 59.856 125.65 59.892C125.722 59.892 125.866 59.928 125.938 59.964C125.974 59.964 126.01 59.964 126.01 59.964C126.118 60 126.262 60 126.37 60C126.478 60 126.586 60 126.73 59.964C126.766 59.964 126.802 59.964 126.802 59.964C126.91 59.928 126.982 59.892 127.09 59.892C127.126 59.856 127.126 59.856 127.162 59.856C127.27 59.82 127.378 59.712 127.45 59.676C127.522 59.64 127.522 59.64 127.522 59.64C127.594 59.568 127.666 59.532 127.738 59.46C127.774 59.424 127.774 59.424 127.81 59.352C127.846 59.28 127.954 59.208 127.99 59.136C128.026 59.136 128.026 59.136 128.026 59.1C128.098 59.028 128.134 58.884 128.17 58.812L137.062 37.788C137.458 36.816 136.99 35.628 135.982 35.232C135.01 34.8 133.822 35.268 133.39 36.276L126.37 52.944L119.35 36.276C118.918 35.268 117.766 34.8 116.794 35.232C115.75 35.628 115.282 36.816 115.714 37.788L124.534 58.812C124.606 58.884 124.678 59.028 124.714 59.1C124.714 59.136 124.75 59.136 124.75 59.136C124.786 59.208 124.858 59.28 124.93 59.352C124.93 59.424 124.966 59.424 124.966 59.46C125.074 59.532 125.146 59.568 125.218 59.64C125.254 59.64 125.254 59.64 125.254 59.64ZM142.469 58.02C142.469 59.136 143.333 60 144.449 60C145.529 60 146.465 59.136 146.465 58.02V36.78C146.465 35.664 145.529 34.8 144.449 34.8C143.333 34.8 142.469 35.664 142.469 36.78V58.02ZM157.145 43.08L168.665 59.064C168.701 59.136 168.773 59.208 168.845 59.28C169.205 59.712 169.745 60 170.321 60C171.401 60 172.301 59.1 172.301 58.02V37.104C172.301 36.06 171.401 35.16 170.321 35.16C169.241 35.16 168.377 36.06 168.377 37.104V51.936L156.749 35.844C156.137 34.98 154.913 34.8 154.013 35.412C153.473 35.808 153.185 36.456 153.221 37.068C153.221 37.104 153.221 37.104 153.221 37.104V58.02C153.221 59.1 154.085 60 155.201 60C156.245 60 157.145 59.1 157.145 58.02V43.08Z" fill="white"/>
</svg>
