<svg width="80" height="80" viewBox="0 0 80 80" fill="none" xmlns="http://www.w3.org/2000/svg">
<path d="M35 11.267H9.99997C9.31884 11.267 8.76709 11.8187 8.76709 12.5C8.76709 13.1811 9.31884 13.7328 9.99997 13.7328H35C35.6811 13.7328 36.2328 13.1811 36.2328 12.5C36.2328 11.8187 35.6811 11.267 35 11.267Z" fill="#4C4C4C"/>
<path d="M66.249 16.2477C68.3194 16.2477 69.9979 14.5693 69.9979 12.4989C69.9979 10.4284 68.3194 8.75 66.249 8.75C64.1786 8.75 62.5001 10.4284 62.5001 12.4989C62.5001 14.5693 64.1786 16.2477 66.249 16.2477Z" fill="#4C4C4C"/>
<path d="M75 0H5C2.2385 0 0 2.2385 0 5V20C0 22.7614 2.2385 25 5 25H75C77.7614 25 80 22.7614 80 20V5C80 2.2385 77.7614 0 75 0ZM77.5 20C77.5 21.3784 76.3785 22.5 75 22.5H5C3.6215 22.5 2.5 21.3784 2.5 20V5C2.5 3.62138 3.6215 2.5 5 2.5H75C76.3785 2.5 77.5 3.62138 77.5 5V20Z" fill="#4C4C4C"/>
<path d="M35 38.767H9.99997C9.31884 38.767 8.76709 39.3187 8.76709 40C8.76709 40.6811 9.31884 41.2328 9.99997 41.2328H35C35.6811 41.2328 36.2328 40.6811 36.2328 40C36.2328 39.3187 35.6811 38.767 35 38.767Z" fill="#4C4C4C"/>
<path d="M66.249 43.7477C68.3194 43.7477 69.9979 42.0693 69.9979 39.9989C69.9979 37.9284 68.3194 36.25 66.249 36.25C64.1786 36.25 62.5001 37.9284 62.5001 39.9989C62.5001 42.0693 64.1786 43.7477 66.249 43.7477Z" fill="#4C4C4C"/>
<path d="M75 27.5H5C2.2385 27.5 0 29.7385 0 32.5V47.5C0 50.2614 2.2385 52.5 5 52.5H75C77.7614 52.5 80 50.2614 80 47.5V32.5C80 29.7385 77.7614 27.5 75 27.5ZM77.5 47.5C77.5 48.8784 76.3785 50 75 50H5C3.6215 50 2.5 48.8784 2.5 47.5V32.5C2.5 31.1214 3.6215 30 5 30H75C76.3785 30 77.5 31.1214 77.5 32.5V47.5Z" fill="#4C4C4C"/>
<path d="M35 66.267H9.99997C9.31884 66.267 8.76709 66.8187 8.76709 67.5C8.76709 68.1811 9.31884 68.7328 9.99997 68.7328H35C35.6811 68.7328 36.2328 68.1811 36.2328 67.5C36.2328 66.8187 35.6811 66.267 35 66.267Z" fill="#4C4C4C"/>
<path d="M66.249 71.2477C68.3194 71.2477 69.9979 69.5693 69.9979 67.4989C69.9979 65.4284 68.3194 63.75 66.249 63.75C64.1786 63.75 62.5001 65.4284 62.5001 67.4989C62.5001 69.5693 64.1786 71.2477 66.249 71.2477Z" fill="#4C4C4C"/>
<path d="M75 55H5C2.2385 55 0 57.2385 0 60V75C0 77.7614 2.2385 80 5 80H75C77.7614 80 80 77.7614 80 75V60C80 57.2385 77.7614 55 75 55ZM77.5 75C77.5 76.3784 76.3785 77.5 75 77.5H5C3.6215 77.5 2.5 76.3784 2.5 75V60C2.5 58.6214 3.6215 57.5 5 57.5H75C76.3785 57.5 77.5 58.6214 77.5 60V75Z" fill="#4C4C4C"/>
</svg>
