<svg width="80" height="80" viewBox="0 0 80 80" fill="none" xmlns="http://www.w3.org/2000/svg">
<path d="M79.9613 18.0987C79.9487 18.0623 79.9336 18.0269 79.9163 17.9924C79.8933 17.9252 79.8648 17.8599 79.831 17.7971C79.805 17.7581 79.7759 17.721 79.7442 17.6862C79.7088 17.6349 79.6701 17.5858 79.6283 17.5393C79.5913 17.5049 79.5447 17.4768 79.5045 17.4455C79.4586 17.4072 79.4102 17.3717 79.3597 17.3393L63.8748 8.67994C63.6792 8.57023 63.4572 8.51247 63.2313 8.51247C63.0054 8.51247 62.7835 8.57023 62.5879 8.67994L47.0998 17.344C47.0501 17.3767 47.0028 17.4127 46.9582 17.4518C46.9144 17.4804 46.8724 17.5117 46.8327 17.5455C46.7906 17.5912 46.7519 17.6398 46.7169 17.6908C46.6896 17.7283 46.6542 17.7612 46.63 17.8018C46.5975 17.8649 46.5696 17.9302 46.5464 17.9971C46.5335 18.033 46.5126 18.0658 46.5013 18.1033C46.4719 18.2093 46.4567 18.3186 46.4563 18.4283V34.872L33.5517 42.0892V9.91275C33.552 9.80242 33.5368 9.69256 33.5066 9.58619C33.497 9.54869 33.4745 9.51587 33.4616 9.47994C33.4391 9.41327 33.4112 9.34848 33.378 9.28619C33.3554 9.24556 33.3184 9.21275 33.2911 9.17369C33.2557 9.1224 33.217 9.07335 33.1753 9.02681C33.1351 8.99347 33.0933 8.96218 33.0498 8.93306C33.0047 8.89507 32.9574 8.8596 32.9082 8.82681L17.4185 0.167468C17.2229 0.0577576 17.0009 0 16.775 0C16.5491 0 16.3272 0.0577576 16.1316 0.167468L0.645075 8.82681C0.594796 8.85875 0.547435 8.89482 0.503513 8.93463C0.45915 8.96323 0.416703 8.99454 0.37643 9.02838C0.334823 9.07409 0.296653 9.12265 0.262215 9.17369C0.23326 9.21275 0.197869 9.24556 0.173739 9.28619C0.140775 9.34839 0.113328 9.41321 0.091698 9.47994C0.0741284 9.51395 0.0585533 9.5489 0.0450471 9.58462C0.0154526 9.69164 0.000311539 9.80194 4.77055e-06 9.91275V61.4282C-0.000611858 61.6482 0.0585597 61.8645 0.171542 62.0551C0.284523 62.2458 0.447313 62.4041 0.643466 62.5141L31.61 79.8328C31.6789 79.8665 31.7504 79.8948 31.824 79.9172C31.8578 79.9297 31.8899 79.9485 31.9253 79.9578C32.1414 80.0141 32.3688 80.0141 32.5849 79.9578C32.6171 79.95 32.6444 79.9328 32.6734 79.9235C32.751 79.8997 32.8264 79.8694 32.8986 79.8328L63.8748 62.5141C64.071 62.4041 64.2337 62.2458 64.3467 62.0551C64.4597 61.8645 64.5189 61.6482 64.5183 61.4282V44.9814L79.3565 36.683C79.5538 36.5723 79.7174 36.4128 79.8304 36.2206C79.9435 36.0284 80.002 35.8105 79.9999 35.5892V18.4252C80.0008 18.3152 79.9879 18.2056 79.9613 18.0987V18.0987ZM16.7734 2.70027L29.6732 9.91119L16.7718 17.1268L3.87364 9.91275L16.7734 2.70027ZM30.9698 12.0752V43.5314L23.4847 47.7173L18.0652 50.7486V19.2971L25.5502 15.1112L30.9698 12.0752ZM30.9698 76.5719L2.58029 60.7032V12.0815L7.99984 15.1096L15.4833 19.2971V52.9189C15.4866 52.9661 15.493 53.0131 15.5026 53.0595C15.5064 53.1215 15.5151 53.1831 15.5283 53.2439C15.5447 53.2923 15.5651 53.3393 15.5895 53.3845C15.6074 53.4383 15.63 53.4906 15.657 53.5407C15.6868 53.5831 15.719 53.6238 15.7535 53.6626C15.7857 53.7087 15.8212 53.7526 15.8597 53.7939C15.8967 53.8282 15.9434 53.8532 15.9836 53.8845C16.0275 53.9215 16.0737 53.956 16.1219 53.9876L30.9521 62.1407L30.9698 76.5719ZM32.2567 59.9829L19.3778 52.9017L32.905 45.3376L47.7464 37.0392L60.6366 44.247L51.1777 49.4907L32.2567 59.9829ZM61.9396 60.697L33.5485 76.5797V62.1563L54.5768 50.5001L61.9396 46.4142V60.697ZM61.9396 42.083L56.52 39.0627L49.035 34.8767V20.5924L54.4545 23.6236L61.9396 27.8127V42.083ZM63.2265 25.633L50.3251 18.419L63.2265 11.2065L76.1247 18.4174L63.2265 25.633ZM64.5134 42.083V27.8127L72.0146 23.6236L77.4325 20.5924V34.872L64.5134 42.083Z" fill="#4C4C4C"/>
</svg>
