<svg width="80" height="80" viewBox="0 0 80 80" fill="none" xmlns="http://www.w3.org/2000/svg">
<path d="M6.25 36.25H8.75V38.75H6.25V36.25Z" fill="#4C4C4C"/>
<path d="M11.25 36.25H22.5V38.75H11.25V36.25Z" fill="#4C4C4C"/>
<path d="M75.455 28.385C74.6475 27.8463 73.755 27.4762 72.8025 27.2863L68.75 26.475V24.315C69.9837 23.2075 70.8463 21.7025 71.1363 20H72.5C74.5675 20 76.25 18.3175 76.25 16.25C76.25 15.3575 75.9238 14.5487 75.4012 13.9038C75.9538 12.7812 76.25 11.5525 76.25 10.2887V10C76.25 7.42375 74.2925 5.2975 71.7875 5.02875C69.2575 2.645 65.9825 1.32125 62.5 1.26125V1.25H1.25V43.75H55V52.265C52.7625 53.5638 51.25 55.9813 51.25 58.75C51.25 61.3975 51.8762 64.0475 53.0587 66.4125L53.2375 66.77L50.5238 67.675C49.2825 68.0888 48.245 68.8675 47.5 69.8637C46.755 68.8675 45.7175 68.0888 44.4762 67.675L41.7625 66.77L41.9413 66.4125C43.1238 64.0475 43.75 61.3975 43.75 58.75C43.75 54.6138 40.3862 51.25 36.25 51.25C32.1138 51.25 28.75 54.6138 28.75 58.75C28.75 61.3975 29.3763 64.0475 30.5588 66.4125L30.7375 66.77L28.0238 67.675C26.885 68.055 25.9263 68.75 25.1987 69.6287C24.6075 68.7425 23.795 68 22.795 67.5L21.25 66.7275V58.75C21.25 54.6138 17.8862 51.25 13.75 51.25C9.61375 51.25 6.25 54.6138 6.25 58.75V66.7275L4.705 67.5C2.57375 68.5663 1.25 70.7075 1.25 73.09V78.75H23.75H26.25H46.25H48.75H71.25V73.6038C71.25 71.6725 70.3575 69.9125 68.9163 68.75H72.5V53.3112C73.07 53.5837 73.7012 53.75 74.375 53.75C76.7875 53.75 78.75 51.7875 78.75 49.375V34.54C78.75 32.0613 77.5187 29.7612 75.455 28.385ZM72.3125 29.7375C72.9425 29.8638 73.535 30.1087 74.0687 30.465C75.435 31.3762 76.25 32.8988 76.25 34.54V43.75H72.5V42.5V35.5175C72.5 34.7113 72.8138 33.9538 73.3838 33.3838L71.6162 31.615C70.5737 32.6575 70 34.0425 70 35.5175V42.5V46.25H57.5V35.5175C57.5 34.0425 56.9263 32.6575 55.8838 31.615L54.1162 33.3838C54.3325 33.6 54.5 33.85 54.6387 34.1138L52.1238 34.7425C49.3813 35.4287 46.3787 34.685 44.2725 32.7888L40.1712 29.0975L43.4325 25.835L49.7087 31.4137L53.7825 30.0562C53.975 29.9925 54.1713 29.94 54.3713 29.9L59.1625 28.9412L59.2738 29.2725C59.9175 31.2037 61.7163 32.5 63.75 32.5C65.7838 32.5 67.5825 31.2037 68.2275 29.2725L68.3375 28.9412L72.3125 29.7375ZM35.7312 25.1025C35.2663 24.6838 35 24.085 35 23.46C35 22.2412 35.9912 21.25 37.21 21.25H37.4362C37.9787 21.25 38.4987 21.4475 38.9037 21.8088L41.5625 24.1712L38.3112 27.4225L35.7312 25.1025ZM66.25 27.2962L65.8563 28.4825C65.5525 29.39 64.7075 30 63.75 30C62.7925 30 61.9475 29.39 61.645 28.4838L61.25 27.2962V25.8037C62.0337 26.0825 62.8725 26.2412 63.75 26.2412C64.6275 26.2412 65.4662 26.0812 66.25 25.8037V27.2962ZM68.75 18.7412C68.75 21.4988 66.5075 23.7412 63.75 23.7412C60.9925 23.7412 58.75 21.4988 58.75 18.7412V14.9375C60.5825 14.7463 62.305 14.0475 63.75 12.91C65.195 14.0475 66.9175 14.745 68.75 14.9375V18.7412ZM72.5 17.5H71.25V15H72.5C73.19 15 73.75 15.5612 73.75 16.25C73.75 16.9388 73.19 17.5 72.5 17.5ZM70.7375 7.5H71.25C72.6288 7.5 73.75 8.62125 73.75 10V10.2887C73.75 11.0837 73.5775 11.8587 73.2613 12.5787C73.015 12.5275 72.7613 12.5 72.5 12.5H71.25V12.4913H69.785C67.8387 12.4913 66.0088 11.7338 64.6338 10.3575L63.75 9.4725L62.8662 10.3575C61.49 11.7338 59.6613 12.4913 57.715 12.4913H56.25V12.5H55C54.7388 12.5 54.485 12.5275 54.2387 12.5787C53.9225 11.8587 53.75 11.0837 53.75 10.2887V10.0325C53.75 8.13625 54.7613 6.3525 56.3863 5.37625C58.16 4.3125 60.1888 3.75 62.2562 3.75C65.3037 3.75 68.1687 4.93625 70.3725 7.14L70.7375 7.5ZM55 17.5C54.31 17.5 53.75 16.9388 53.75 16.25C53.75 15.5612 54.31 15 55 15H56.25V17.5H55ZM3.75 41.25V3.75H54.3538C52.4238 5.23875 51.25 7.5675 51.25 10.0325V10.2887C51.25 11.5525 51.5462 12.7812 52.0988 13.9038C51.5763 14.5475 51.25 15.3575 51.25 16.25C51.25 18.3175 52.9325 20 55 20H56.3638C56.6538 21.7025 57.5163 23.2075 58.75 24.315V26.475L53.88 27.4487C53.58 27.5087 53.2813 27.5875 52.9913 27.6838L50.29 28.585L40.5638 19.94C39.7025 19.1725 38.5913 18.75 37.435 18.75H37.2088C34.6125 18.75 32.5 20.8625 32.5 23.46C32.5 24.7925 33.0675 26.0688 34.0588 26.96L42.6 34.6462C44.645 36.4862 47.285 37.5 50.035 37.5C50.9437 37.5 51.85 37.3887 52.73 37.1675L55 36.6012V41.25H3.75ZM58.75 53.75C61.5075 53.75 63.75 55.9925 63.75 58.75C63.75 61.0112 63.215 63.2738 62.205 65.295L61.7275 66.25H55.7725L55.295 65.295C54.285 63.2738 53.75 61.0112 53.75 58.75C53.75 55.9925 55.9925 53.75 58.75 53.75ZM36.25 53.75C39.0075 53.75 41.25 55.9925 41.25 58.75C41.25 61.0112 40.715 63.2738 39.705 65.295L39.2275 66.25H33.2725L32.795 65.295C31.785 63.2738 31.25 61.0112 31.25 58.75C31.25 55.9925 33.4925 53.75 36.25 53.75ZM8.75 58.75C8.75 55.9925 10.9925 53.75 13.75 53.75C16.5075 53.75 18.75 55.9925 18.75 58.75V71.25H8.75V58.75ZM23.75 76.25H3.75V73.09C3.75 71.66 4.545 70.375 5.8225 69.7363L6.25 69.5225V73.75H21.25V69.5225L21.6775 69.7363C22.955 70.375 23.75 71.6612 23.75 73.09V73.6038V76.25ZM46.25 76.25H26.25V73.6038C26.25 71.9875 27.28 70.5575 28.815 70.0462L32.7038 68.75H39.7975L43.6863 70.0462C45.22 70.5575 46.25 71.9875 46.25 73.6038V76.25ZM68.75 76.25H48.75V73.6038C48.75 71.9875 49.78 70.5575 51.315 70.0462L55.2037 68.75H62.2975L66.1862 70.0462C67.72 70.5575 68.75 71.9875 68.75 73.6038V76.25ZM70 66.25H64.5113C65.6425 63.925 66.25 61.3375 66.25 58.75C66.25 54.6138 62.8862 51.25 58.75 51.25C58.3237 51.25 57.9075 51.2938 57.5 51.3625V48.75H70V49.375V66.25ZM74.375 51.25C73.3412 51.25 72.5 50.4087 72.5 49.375V46.25H76.25V49.375C76.25 50.4087 75.4088 51.25 74.375 51.25Z" fill="#4C4C4C"/>
<path d="M26.25 13.75H23.75V18.75H21.25V8.75H18.75V18.75H16.25V11.25H13.75V18.75H11.25V13.75H8.75V18.75H6.25V21.25H28.75V18.75H26.25V13.75Z" fill="#4C4C4C"/>
<path d="M6.25 23.75H8.75V26.25H6.25V23.75Z" fill="#4C4C4C"/>
<path d="M11.25 23.75H23.75V26.25H11.25V23.75Z" fill="#4C4C4C"/>
<path d="M26.25 23.75H28.75V26.25H26.25V23.75Z" fill="#4C4C4C"/>
</svg>
