<svg width="80" height="80" viewBox="0 0 80 80" fill="none" xmlns="http://www.w3.org/2000/svg">
<path d="M76.25 4.9975H3.75C1.6825 4.9975 0 6.68 0 8.7475V73.7525C0 74.4437 0.55875 75.0025 1.25 75.0025H78.75C79.4413 75.0025 80 74.4437 80 73.7525V8.7475C80 6.68 78.3175 4.9975 76.25 4.9975ZM2.5 12.4975H77.5V72.5025H2.5V12.4975ZM3.75 7.4975H5.025C4.335 7.4975 3.7825 8.05625 3.7825 8.7475C3.7825 9.43875 4.3475 9.9975 5.03875 9.9975C5.72875 9.9975 6.28875 9.43875 6.28875 8.7475C6.28875 8.05625 5.72875 7.4975 5.03875 7.4975H8.77375C8.08375 7.4975 7.53125 8.05625 7.53125 8.7475C7.53125 9.43875 8.09625 9.9975 8.7875 9.9975C9.4775 9.9975 10.0375 9.43875 10.0375 8.7475C10.0375 8.05625 9.4775 7.4975 8.7875 7.4975H12.5275C11.8375 7.4975 11.285 8.05625 11.285 8.7475C11.285 9.43875 11.85 9.9975 12.5413 9.9975C13.2312 9.9975 13.7913 9.43875 13.7913 8.7475C13.7913 8.05625 13.2312 7.4975 12.5413 7.4975H76.25C76.94 7.4975 77.5 8.0575 77.5 8.7475V9.9975H12.54H8.78625H5.0375H2.5V8.7475C2.5 8.0575 3.06 7.4975 3.75 7.4975Z" fill="#4C4C4C"/>
<path d="M67.5063 56.25H12.4988C11.8075 56.25 11.2488 56.8088 11.2488 57.5V61.25C11.2488 61.9412 11.8075 62.5 12.4988 62.5H67.5063C68.1975 62.5 68.7563 61.9412 68.7563 61.25V57.5C68.7563 56.8088 68.1975 56.25 67.5063 56.25ZM13.7488 58.75H35.73L34.48 60H13.7488V58.75ZM66.2563 60H38.015L39.265 58.75H66.2563V60Z" fill="#4C4C4C"/>
<path d="M67.5063 48.7475H12.4988C11.8075 48.7475 11.2488 49.3062 11.2488 49.9975V53.7475C11.2488 54.4388 11.8075 54.9975 12.4988 54.9975H67.5063C68.1975 54.9975 68.7563 54.4388 68.7563 53.7475V49.9975C68.7563 49.3062 68.1975 48.7475 67.5063 48.7475ZM13.7488 51.2475H45.74L44.49 52.4975H13.7488V51.2475ZM66.2563 52.4975H48.025L49.275 51.2475H66.2563V52.4975Z" fill="#4C4C4C"/>
<path d="M67.5063 63.75H12.4988C11.8075 63.75 11.2488 64.3088 11.2488 65V68.75C11.2488 69.4412 11.8075 70 12.4988 70H67.5063C68.1975 70 68.7563 69.4412 68.7563 68.75V65C68.7563 64.3088 68.1975 63.75 67.5063 63.75ZM13.7488 66.25H54.4988L53.2488 67.5H13.7488V66.25ZM66.2563 67.5H56.7838L58.0338 66.25H66.2563V67.5Z" fill="#4C4C4C"/>
<path d="M34.4362 30.495C34.4437 30.5012 34.4538 30.5062 34.4613 30.5137C35.9713 31.7525 37.9 32.4975 40.0012 32.4975C42.1075 32.4975 44.0413 31.7487 45.5525 30.5037C45.5538 30.5025 45.5562 30.5025 45.5575 30.5012C47.505 28.895 48.75 26.4637 48.75 23.7462C48.75 18.9225 44.8237 14.9962 40 14.9962C35.1762 14.9962 31.25 18.9225 31.25 23.7462C31.25 26.46 32.4912 28.8887 34.4362 30.495ZM36.905 29.1437C37.5925 28.135 38.74 27.4962 39.9988 27.4962C41.2588 27.4962 42.4062 28.1362 43.0937 29.145C42.1787 29.6725 41.1313 29.9975 40 29.9975C38.8688 29.9975 37.8225 29.6725 36.905 29.1437ZM40 24.9962C39.31 24.9962 38.75 24.4362 38.75 23.7462C38.75 23.0562 39.31 22.4962 40 22.4962C40.69 22.4962 41.25 23.0562 41.25 23.7462C41.25 24.4362 40.69 24.9962 40 24.9962ZM40 17.4962C43.4462 17.4962 46.25 20.3 46.25 23.7462C46.25 25.15 45.7675 26.4337 44.9825 27.4787C44.475 26.8075 43.8288 26.26 43.105 25.8437C43.5125 25.245 43.75 24.5237 43.75 23.7462C43.75 21.6787 42.0675 19.9962 40 19.9962C37.9325 19.9962 36.25 21.6787 36.25 23.7462C36.25 24.5225 36.4875 25.245 36.8937 25.845C36.17 26.2612 35.525 26.8075 35.0163 27.4787C34.2325 26.4325 33.75 25.15 33.75 23.7462C33.75 20.3 36.5538 17.4962 40 17.4962Z" fill="#4C4C4C"/>
<path d="M19.98 47.5125C24.8037 47.5125 28.73 43.5863 28.73 38.7625C28.73 33.9388 24.8037 30.0125 19.98 30.0125C15.1562 30.0125 11.23 33.9388 11.23 38.7625C11.23 43.5863 15.1562 47.5125 19.98 47.5125ZM26.1037 37.5125H23.5C23.1225 36.4525 22.29 35.62 21.2312 35.2438V32.64C23.675 33.1375 25.605 35.0675 26.1037 37.5125ZM19.98 37.5125C20.67 37.5125 21.23 38.0725 21.23 38.7625C21.23 39.4525 20.67 40.0125 19.98 40.0125C19.29 40.0125 18.73 39.4525 18.73 38.7625C18.73 38.0725 19.2912 37.5125 19.98 37.5125ZM18.73 32.6388V35.2425C17.2787 35.76 16.23 37.135 16.23 38.7613C16.23 40.8288 17.9125 42.5113 19.98 42.5113C21.6075 42.5113 22.9812 41.4625 23.4987 40.0113H26.1025C25.5225 42.86 22.9975 45.0113 19.98 45.0113C16.5337 45.0113 13.73 42.2075 13.73 38.7613C13.73 35.745 15.8812 33.2188 18.73 32.6388Z" fill="#4C4C4C"/>
<path d="M60.0012 47.5125C64.825 47.5125 68.7512 43.5863 68.7512 38.7625C68.7512 33.9388 64.825 30.0125 60.0012 30.0125C55.1775 30.0125 51.2512 33.9388 51.2512 38.7625C51.2512 43.5863 55.1775 47.5125 60.0012 47.5125ZM60.0012 37.5125C60.6912 37.5125 61.2512 38.0725 61.2512 38.7625C61.2512 39.4525 60.6912 40.0125 60.0012 40.0125C59.3112 40.0125 58.7512 39.4525 58.7512 38.7625C58.7512 38.0725 59.3112 37.5125 60.0012 37.5125ZM66.2512 38.7625C66.2512 41.78 64.1 44.3063 61.2512 44.885V42.2813C62.7025 41.7638 63.7512 40.3888 63.7512 38.7625C63.7512 37.1363 62.7025 35.7613 61.2512 35.2438V32.64C64.1 33.2188 66.2512 35.745 66.2512 38.7625ZM58.7512 32.6388V35.2425C57.3 35.76 56.2512 37.135 56.2512 38.7613C56.2512 40.3875 57.3 41.7625 58.7512 42.28V44.8838C55.9025 44.3038 53.7512 41.7788 53.7512 38.7613C53.7512 35.7438 55.9025 33.2188 58.7512 32.6388Z" fill="#4C4C4C"/>
<path d="M32.4974 37.495H47.5025C48.1937 37.495 48.7525 36.9362 48.7525 36.245C48.7525 35.5537 48.1937 34.995 47.5025 34.995H32.4974C31.8062 34.995 31.2474 35.5537 31.2474 36.245C31.2474 36.9362 31.8062 37.495 32.4974 37.495Z" fill="#4C4C4C"/>
<path d="M32.4974 41.2475H47.5025C48.1937 41.2475 48.7525 40.6888 48.7525 39.9975C48.7525 39.3062 48.1937 38.7475 47.5025 38.7475H32.4974C31.8062 38.7475 31.2474 39.3062 31.2474 39.9975C31.2474 40.6888 31.8062 41.2475 32.4974 41.2475Z" fill="#4C4C4C"/>
<path d="M37.5 42.5C36.8088 42.5 36.25 43.0588 36.25 43.75C36.25 44.4412 36.8088 45 37.5 45H42.5C43.1912 45 43.75 44.4412 43.75 43.75C43.75 43.0588 43.1912 42.5 42.5 42.5H37.5Z" fill="#4C4C4C"/>
</svg>
