<svg width="80" height="80" viewBox="0 0 80 80" fill="none" xmlns="http://www.w3.org/2000/svg">
<g clip-path="url(#clip0)">
<path d="M78.4375 1.60138H1.56249C0.699529 1.60138 0 2.30106 0 3.16387V19.2355C0 20.0983 0.699529 20.798 1.56249 20.798H78.4375C79.3005 20.798 80 20.0983 80 19.2355V3.16387C80 2.30106 79.3005 1.60138 78.4375 1.60138ZM76.875 17.673H3.12499V4.72637H76.875V17.673Z" fill="#4C4C4C"/>
<path d="M73.345 14.124L72.0689 12.8479C72.4172 12.1592 72.6027 11.3939 72.6027 10.5998C72.6027 9.26653 72.0834 8.01278 71.1406 7.06997C69.1944 5.12389 66.0277 5.12373 64.0813 7.06997C63.1385 8.01278 62.6193 9.26653 62.6193 10.5998C62.6193 11.9331 63.1386 13.1868 64.0813 14.1295C65.0243 15.0723 66.2778 15.5915 67.6111 15.5915C68.4053 15.5915 69.1705 15.4059 69.8592 15.0578L71.1353 16.3338C71.4405 16.6388 71.8403 16.7915 72.2402 16.7915C72.64 16.7915 73.04 16.6388 73.345 16.3338C73.9552 15.7237 73.9552 14.7343 73.345 14.124ZM68.9311 11.9196C68.5786 12.2723 68.1099 12.4665 67.6111 12.4665C67.1124 12.4665 66.6438 12.2723 66.2911 11.9196C65.9386 11.567 65.7442 11.0984 65.7442 10.5998C65.7442 10.1012 65.9386 9.63231 66.2911 9.27981C66.655 8.9159 67.1331 8.73403 67.6111 8.73403C68.0891 8.73403 68.5672 8.9159 68.9311 9.27981C69.2836 9.63246 69.478 10.1012 69.478 10.5998C69.478 11.0984 69.2838 11.5671 68.9311 11.9196Z" fill="#4C4C4C"/>
<path d="M55.9906 13.7235C55.9703 13.6234 55.9406 13.5249 55.9015 13.4313C55.8625 13.3374 55.814 13.2454 55.7578 13.161C55.7015 13.0766 55.6359 12.9954 55.564 12.9235C55.4922 12.8516 55.4125 12.786 55.3265 12.7298C55.2422 12.6735 55.1515 12.6251 55.0562 12.586C54.9625 12.547 54.864 12.5173 54.764 12.497C54.5625 12.4563 54.3547 12.4563 54.1531 12.497C54.0531 12.5173 53.9547 12.547 53.8609 12.586C53.7672 12.6251 53.6765 12.6735 53.5922 12.7298C53.5062 12.786 53.4265 12.8516 53.3531 12.9235C53.2812 12.9954 53.2172 13.0765 53.1594 13.161C53.1031 13.2454 53.0547 13.3376 53.0156 13.4313C52.9765 13.5251 52.9469 13.6234 52.9265 13.7235C52.9062 13.8249 52.8969 13.9266 52.8969 14.0298C52.8969 14.1312 52.9062 14.2329 52.9265 14.3345C52.9469 14.4345 52.9765 14.5329 53.0156 14.6265C53.0547 14.7204 53.1031 14.811 53.1594 14.8968C53.2172 14.9812 53.2812 15.0624 53.3531 15.1343C53.4265 15.2062 53.5062 15.2719 53.5922 15.328C53.6765 15.3843 53.7672 15.4327 53.8609 15.4718C53.9562 15.5109 54.0547 15.5405 54.1531 15.5609C54.2547 15.5812 54.3578 15.5905 54.4593 15.5905C54.5609 15.5905 54.664 15.581 54.764 15.5609C54.864 15.5407 54.9625 15.5109 55.0562 15.4718C55.15 15.4327 55.2422 15.3843 55.3265 15.328C55.4125 15.2719 55.4922 15.2062 55.564 15.1343C55.8547 14.8423 56.0218 14.4407 56.0218 14.0298C56.0218 13.9266 56.0109 13.8249 55.9906 13.7235Z" fill="#4C4C4C"/>
<path d="M48.5353 12.4665H16.0615C15.1986 12.4665 14.499 13.1662 14.499 14.029C14.499 14.8918 15.1986 15.5915 16.0615 15.5915H48.5353C49.3983 15.5915 50.0978 14.8918 50.0978 14.029C50.0978 13.1662 49.3983 12.4665 48.5353 12.4665Z" fill="#4C4C4C"/>
<path d="M49.1906 23.0255H1.74706C0.884099 23.0255 0.18457 23.7252 0.18457 24.588V55.4002C0.18457 56.2632 0.884099 56.9627 1.74706 56.9627H49.1906C50.0536 56.9627 50.7531 56.263 50.7531 55.4002V24.588C50.7531 23.7252 50.0536 23.0255 49.1906 23.0255ZM19.0322 53.8376H5.76955L14.7015 43.4961L21.1703 50.9867L19.0322 53.8376ZM22.9384 53.8376L25.8518 49.9531H33.4282C34.2912 49.9531 34.9907 49.2534 34.9907 48.3906C34.9907 47.5278 34.2912 46.8281 33.4282 46.8281H28.1957L29.292 45.3665H39.1027L45.4566 53.8376H22.9384ZM31.6355 42.2415L34.1973 38.8261L36.759 42.2415H31.6355ZM47.6281 51.5248L35.4473 35.2842C35.1521 34.8908 34.689 34.6592 34.1973 34.6592C33.7055 34.6592 33.2424 34.8908 32.9473 35.2842L23.0895 48.4278L15.8842 40.084C15.5875 39.7404 15.1558 39.5428 14.7017 39.5428C14.2476 39.5428 13.8161 39.7404 13.5192 40.084L3.30956 51.9048V26.1505H47.6281V51.5248Z" fill="#4C4C4C"/>
<path d="M21.5074 27.9446C18.4615 27.9446 15.9835 30.4225 15.9835 33.4685C15.9835 36.5144 18.4616 38.9924 21.5074 38.9924C24.5533 38.9924 27.0313 36.5144 27.0313 33.4685C27.0313 30.4225 24.5533 27.9446 21.5074 27.9446ZM21.5074 35.8675C20.1846 35.8675 19.1085 34.7914 19.1085 33.4686C19.1085 32.1458 20.1848 31.0697 21.5074 31.0697C22.8301 31.0697 23.9063 32.1458 23.9063 33.4686C23.9063 34.7914 22.8302 35.8675 21.5074 35.8675Z" fill="#4C4C4C"/>
<path d="M78.4375 23.0255H54.4236C53.5606 23.0255 52.8611 23.7252 52.8611 24.588V55.4002C52.8611 56.263 53.5606 56.9627 54.4236 56.9627H78.4375C79.3005 56.9627 80 56.263 80 55.4002V24.588C80 23.7252 79.3005 23.0255 78.4375 23.0255ZM76.8751 53.8377H55.9861V26.1505H76.8751V53.8377Z" fill="#4C4C4C"/>
<path d="M73.2371 28.7241H59.624C58.7611 28.7241 58.0615 29.4238 58.0615 30.2866C58.0615 31.1494 58.7611 31.8491 59.624 31.8491H73.2371C74.1001 31.8491 74.7996 31.1494 74.7996 30.2866C74.7996 29.4238 74.1001 28.7241 73.2371 28.7241Z" fill="#4C4C4C"/>
<path d="M73.2371 34.995H59.624C58.7611 34.995 58.0615 35.6947 58.0615 36.5575C58.0615 37.4203 58.7611 38.12 59.624 38.12H73.2371C74.1001 38.12 74.7996 37.4203 74.7996 36.5575C74.7996 35.6947 74.1001 34.995 73.2371 34.995Z" fill="#4C4C4C"/>
<path d="M73.2371 41.2659H59.624C58.7611 41.2659 58.0615 41.9656 58.0615 42.8284C58.0615 43.6912 58.7611 44.3909 59.624 44.3909H73.2371C74.1001 44.3909 74.7996 43.6912 74.7996 42.8284C74.7996 41.9656 74.1001 41.2659 73.2371 41.2659Z" fill="#4C4C4C"/>
<path d="M61.1561 48.7937C61.1358 48.6936 61.1061 48.5951 61.067 48.5015C61.028 48.4076 60.9795 48.317 60.9233 48.2312C60.8655 48.1468 60.8014 48.0656 60.728 47.9937C60.3655 47.6312 59.8264 47.4639 59.3186 47.5672C59.2186 47.5875 59.1202 47.6172 59.0264 47.6562C58.9327 47.6953 58.842 47.7437 58.7561 47.8C58.6717 47.8562 58.5905 47.9218 58.5186 47.9937C58.4467 48.0656 58.3811 48.1467 58.3249 48.2312C58.2686 48.3172 58.2202 48.4078 58.1811 48.5015C58.142 48.5953 58.1124 48.6936 58.092 48.7937C58.0717 48.8951 58.0608 48.9968 58.0608 49.0982C58.0608 49.2014 58.0717 49.3031 58.092 49.4045C58.1124 49.5047 58.142 49.6031 58.1811 49.6968C58.2202 49.7907 58.2686 49.8814 58.3249 49.9671C58.3811 50.0515 58.4467 50.1328 58.5186 50.2047C58.5905 50.2765 58.6717 50.3421 58.7561 50.3984C58.842 50.4546 58.9327 50.5031 59.0264 50.5421C59.1202 50.5812 59.2186 50.6109 59.3186 50.6312C59.4202 50.6515 59.5217 50.6625 59.6248 50.6625C60.0358 50.6625 60.4373 50.4953 60.728 50.2045C60.7998 50.1326 60.8655 50.0515 60.9233 49.967C60.9795 49.8811 61.028 49.7904 61.067 49.6967C61.1061 49.6029 61.1358 49.5047 61.1561 49.4045C61.1764 49.3031 61.1858 49.2014 61.1858 49.0982C61.1858 48.9968 61.1764 48.8951 61.1561 48.7937Z" fill="#4C4C4C"/>
<path d="M73.237 47.5367H65.5474C64.6844 47.5367 63.9849 48.2364 63.9849 49.0992C63.9849 49.962 64.6844 50.6617 65.5474 50.6617H73.237C74.1 50.6617 74.7995 49.962 74.7995 49.0992C74.7995 48.2364 74.1 47.5367 73.237 47.5367Z" fill="#4C4C4C"/>
<path d="M25.761 59.1796H1.74706C0.884099 59.1796 0.18457 59.8793 0.18457 60.7421V76.8361C0.18457 77.6989 0.884099 78.3986 1.74706 78.3986H25.761C26.624 78.3986 27.3235 77.6989 27.3235 76.8361V60.7421C27.3235 59.8793 26.624 59.1796 25.761 59.1796ZM24.1985 75.2736H3.30956V62.3046H24.1985V75.2736Z" fill="#4C4C4C"/>
<path d="M78.4375 59.1796H31.2074C30.3444 59.1796 29.6449 59.8793 29.6449 60.7421V76.8361C29.6449 77.6989 30.3444 78.3986 31.2074 78.3986H78.4375C79.3005 78.3986 80 77.6989 80 76.8361V60.7421C80 59.8793 79.3005 59.1796 78.4375 59.1796ZM76.875 75.2736H32.7699V62.3046H76.875V75.2736Z" fill="#4C4C4C"/>
<path d="M39.8876 68.4844C39.8672 68.3846 39.8376 68.286 39.7985 68.1922C39.7594 68.0969 39.711 68.0064 39.6548 67.9221C39.5985 67.836 39.5329 67.7563 39.461 67.6844C39.3891 67.6125 39.3094 67.5469 39.2235 67.4907C39.1391 67.4346 39.0485 67.386 38.9532 67.3469C38.8594 67.3079 38.761 67.2766 38.661 67.2563C38.4594 67.2172 38.2516 67.2172 38.0501 67.2563C37.9516 67.2766 37.8532 67.3079 37.7579 67.3469C37.6641 67.386 37.5735 67.4346 37.4891 67.4907C37.4032 67.5469 37.3235 67.6125 37.2516 67.6844C37.1798 67.7563 37.1141 67.836 37.0563 67.9221C37.0001 68.0064 36.9516 68.0969 36.9126 68.1922C36.8735 68.2861 36.8438 68.3844 36.8235 68.4844C36.8032 68.5844 36.7938 68.6875 36.7938 68.7891C36.7938 68.8905 36.8032 68.9938 36.8235 69.0938C36.8438 69.1936 36.8735 69.2921 36.9126 69.3874C36.9516 69.4811 37.0001 69.5717 37.0563 69.6561C37.1141 69.7421 37.1798 69.8217 37.2516 69.8936C37.5423 70.1842 37.9454 70.3516 38.3563 70.3516C38.4579 70.3516 38.561 70.3421 38.661 70.3219C38.761 70.3016 38.8594 70.2703 38.9532 70.2313C39.0485 70.1922 39.1391 70.1453 39.2235 70.0875C39.3094 70.0314 39.3891 69.9658 39.461 69.8938C39.5329 69.8219 39.5985 69.7422 39.6548 69.6563C39.711 69.5719 39.7594 69.4813 39.7985 69.3875C39.8376 69.2922 39.8672 69.1938 39.8876 69.0938C39.9079 68.9936 39.9188 68.8905 39.9188 68.7891C39.9188 68.6875 39.9079 68.5842 39.8876 68.4844Z" fill="#4C4C4C"/>
<path d="M70.5183 67.2266H44.2793C43.4163 67.2266 42.7168 67.9263 42.7168 68.7891C42.7168 69.6519 43.4163 70.3516 44.2793 70.3516H70.5183C71.3812 70.3516 72.0808 69.6519 72.0808 68.7891C72.0808 67.9263 71.3812 67.2266 70.5183 67.2266Z" fill="#4C4C4C"/>
</g>
<defs>
<clipPath id="clip0">
<rect width="80" height="80" fill="white"/>
</clipPath>
</defs>
</svg>
