<svg width="80" height="80" viewBox="0 0 80 80" fill="none" xmlns="http://www.w3.org/2000/svg">
<path d="M78.3673 7.08685H1.63265C0.730939 7.08685 0 7.81796 0 8.71951V71.2805C0 72.1822 0.730939 72.9131 1.63265 72.9131H78.3673C79.2689 72.9131 80 72.1822 80 71.2805V8.71951C80 7.81796 79.2689 7.08685 78.3673 7.08685ZM76.7347 10.3522V20.1848H3.26531V10.3522H76.7347ZM3.26531 69.6478V23.4501H76.7347V69.6478H3.26531Z" fill="#4C4C4C"/>
<path d="M25.4828 31.6647H12.4273C11.5258 31.6647 10.7947 32.3956 10.7947 33.2973V46.5211C10.7947 47.4227 11.5258 48.1538 12.4273 48.1538H25.4828C26.3846 48.1538 27.1155 47.4227 27.1155 46.5211V33.2973C27.1155 32.3956 26.3846 31.6647 25.4828 31.6647ZM23.8502 44.8885H14.06V34.93H23.8502V44.8885Z" fill="#4C4C4C"/>
<path d="M33.3526 48.1538H46.4075C47.309 48.1538 48.0401 47.4227 48.0401 46.5211V33.2973C48.0401 32.3956 47.309 31.6647 46.4075 31.6647H33.3526C32.4511 31.6647 31.72 32.3956 31.72 33.2973V46.5211C31.72 47.4229 32.4511 48.1538 33.3526 48.1538ZM34.9853 34.93H44.7748V44.8885H34.9853V34.93Z" fill="#4C4C4C"/>
<path d="M54.2784 48.1538H67.3339C68.2356 48.1538 68.9666 47.4227 68.9666 46.5211V33.2973C68.9666 32.3956 68.2356 31.6647 67.3339 31.6647H54.2784C53.3767 31.6647 52.6458 32.3956 52.6458 33.2973V46.5211C52.6458 47.4229 53.3769 48.1538 54.2784 48.1538ZM55.9111 34.93H65.7013V44.8885H55.9111V34.93Z" fill="#4C4C4C"/>
<path d="M25.4828 52.2967H12.4273C11.5258 52.2967 10.7947 53.0276 10.7947 53.9294C10.7947 54.8311 11.5258 55.562 12.4273 55.562H25.4828C26.3846 55.562 27.1155 54.8311 27.1155 53.9294C27.1155 53.0278 26.3846 52.2967 25.4828 52.2967Z" fill="#4C4C4C"/>
<path d="M25.4828 58.3375H12.4273C11.5258 58.3375 10.7947 59.0685 10.7947 59.9702C10.7947 60.8719 11.5258 61.6028 12.4273 61.6028H25.4828C26.3846 61.6028 27.1155 60.8719 27.1155 59.9702C27.1155 59.0686 26.3846 58.3375 25.4828 58.3375Z" fill="#4C4C4C"/>
<path d="M46.5277 52.2967H33.4726C32.5711 52.2967 31.84 53.0276 31.84 53.9294C31.84 54.8311 32.5711 55.562 33.4726 55.562H46.5278C47.4295 55.562 48.1605 54.8311 48.1605 53.9294C48.1603 53.0278 47.4294 52.2967 46.5277 52.2967Z" fill="#4C4C4C"/>
<path d="M46.5277 58.3375H33.4726C32.5711 58.3375 31.84 59.0685 31.84 59.9702C31.84 60.8719 32.5711 61.6028 33.4726 61.6028H46.5278C47.4295 61.6028 48.1605 60.8719 48.1605 59.9702C48.1603 59.0686 47.4294 58.3375 46.5277 58.3375Z" fill="#4C4C4C"/>
<path d="M67.5728 52.2967H54.5173C53.6157 52.2967 52.8846 53.0276 52.8846 53.9294C52.8846 54.8311 53.6157 55.562 54.5173 55.562H67.5728C68.4744 55.562 69.2055 54.8311 69.2055 53.9294C69.2055 53.0278 68.4744 52.2967 67.5728 52.2967Z" fill="#4C4C4C"/>
<path d="M67.5728 58.3375H54.5173C53.6157 58.3375 52.8846 59.0685 52.8846 59.9702C52.8846 60.8719 53.6157 61.6028 54.5173 61.6028H67.5728C68.4744 61.6028 69.2055 60.8719 69.2055 59.9702C69.2055 59.0686 68.4744 58.3375 67.5728 58.3375Z" fill="#4C4C4C"/>
<path d="M12.4273 16.8651H13.2335C14.1351 16.8651 14.8662 16.134 14.8662 15.2324C14.8662 14.3309 14.1351 13.5998 13.2335 13.5998H12.4273C11.5258 13.5998 10.7947 14.3309 10.7947 15.2324C10.7947 16.134 11.5258 16.8651 12.4273 16.8651Z" fill="#4C4C4C"/>
<path d="M19.1973 16.8651H20.0031C20.9046 16.8651 21.6357 16.134 21.6357 15.2324C21.6357 14.3309 20.9048 13.5998 20.0031 13.5998H19.1973C18.2958 13.5998 17.5647 14.3309 17.5647 15.2324C17.5647 16.134 18.2958 16.8651 19.1973 16.8651Z" fill="#4C4C4C"/>
<path d="M25.9672 16.8651H26.7725C27.674 16.8651 28.4051 16.134 28.4051 15.2324C28.4051 14.3309 27.674 13.5998 26.7725 13.5998H25.9672C25.0657 13.5998 24.3346 14.3309 24.3346 15.2324C24.3346 16.134 25.0655 16.8651 25.9672 16.8651Z" fill="#4C4C4C"/>
</svg>
